<svg width="168" height="32" fill="none" xmlns="http://www.w3.org/2000/svg">
  <g clip-path="url(#clip0)">
    <path d="M19.686 19.753c-.561 1.683-1.045 2.486-2.051 3.483-1.77 1.76-4.624 2.834-7.555 2.834C4.102 26.07 0 22.085 0 16.232c0-5.94 4.179-9.954 10.283-9.954 3.821 0 7.071 1.722 8.764 4.672 1.006 1.722 1.325 3.173 1.364 5.892H2.496c.28 2.486.967 3.985 2.408 5.243 1.326 1.15 3.25 1.799 5.302 1.799 3.211 0 5.581-1.412 6.83-4.13h2.65zM17.76 14.85c-.242-1.645-.561-2.525-1.287-3.483-1.325-1.838-3.695-2.911-6.307-2.911-2.97 0-5.543 1.373-6.752 3.676-.407.803-.6 1.45-.764 2.718h15.11zM49.712 32V6.81h2.535v3.83c1.847-2.988 4.295-4.362 7.835-4.362 5.785 0 10.37 4.363 10.37 9.954 0 5.514-4.498 9.838-10.244 9.838-3.54 0-6.065-1.373-7.961-4.363V32h-2.535zm2.331-15.923c0 4.48 3.377 7.807 7.836 7.807 4.585 0 7.913-3.212 7.913-7.652 0-4.401-3.415-7.768-7.836-7.768-4.333-.01-7.913 3.444-7.913 7.613zm42.719 9.258c-1.161.31-1.645.387-2.37.387-1.683 0-2.535-1.074-2.535-3.173-2.573 2.64-4.778 3.521-8.638 3.521-4.74 0-7.671-2.109-7.671-5.475 0-2.225 1.044-3.753 3.211-4.672 1.006-.426 2.37-.726 4.905-1.036l4.101-.532c3.096-.425 4.015-.996 4.015-2.563 0-2.186-2.05-3.328-5.823-3.328-4.586 0-6.675 1.306-6.956 4.402H74.39c.28-2.032.687-3.028 1.645-4.024 1.683-1.838 4.014-2.564 8.038-2.564 3.58 0 5.863.764 7.15 2.448.88 1.112 1.044 1.915 1.044 4.827v8.416c0 1.112.397 1.644 1.287 1.644.28 0 .638-.077 1.209-.232v1.954zm-4.943-8.648c0-.232 0-.387.077-1.606-1.045.687-1.848.958-4.585 1.374l-3.657.532c-4.256.648-5.543 1.45-5.543 3.444 0 2.253 2.012 3.56 5.466 3.56 2.853 0 5.427-1.036 7.11-2.835.841-.919 1.122-1.567 1.122-2.525v-1.944h.01zm24.59 8.841v-11.56c0-1.837-.281-2.873-.968-3.714-.919-1.074-2.573-1.683-4.74-1.683-2.495 0-4.865.88-6.346 2.37-1.122 1.15-1.605 2.447-1.605 4.401v10.186h-2.573V6.81h2.573v3.985c.967-1.412 1.567-2.03 2.689-2.718 1.644-1.035 3.782-1.605 5.988-1.605 2.776 0 5.224.919 6.433 2.447.841 1.035 1.161 2.331 1.161 4.788v11.831h-2.612v-.01zm25.093 0V21.66c-.842 1.306-1.364 1.915-2.128 2.525-1.403 1.19-3.493 1.877-5.746 1.877-5.824 0-10.206-4.286-10.206-9.916 0-5.591 4.421-9.838 10.206-9.838 3.579 0 6.191 1.451 7.874 4.402V0h2.534v25.528h-2.534zm-15.468-9.373c0 4.401 3.415 7.768 7.835 7.768 4.344 0 7.875-3.405 7.875-7.613 0-4.44-3.376-7.73-7.875-7.73-4.585-.01-7.835 3.173-7.835 7.575zm43.444.193c0 5.591-4.46 9.722-10.525 9.722-6.191 0-10.486-4.014-10.486-9.8 0-5.929 4.343-9.992 10.612-9.992 6.142 0 10.399 4.092 10.399 10.07zm-18.448-.193c0 4.517 3.338 7.729 8.039 7.729 4.459 0 7.797-3.25 7.797-7.613 0-4.556-3.25-7.807-7.836-7.807-4.624-.01-8 3.25-8 7.69z" fill="#0D0D0D"/>
    <path d="M41.248 25.528l-5.669-6.239c-.6-.687-1.006-1.19-1.683-2.264-.725 1.036-1.083 1.529-1.925 2.41l-5.581 6.084h-3.25l9.102-9.751-8.28-8.958h3.375l4.624 5.127c.726.803 1.17 1.412 1.925 2.641.687-1.074 1.123-1.722 1.974-2.64l4.585-5.128h3.25l-8.116 8.958 8.92 9.76h-3.251z" fill="#FF4D00"/>
    <path d="M22.5 9.354h-2.33V1.606h7.748v2.321H22.5v5.427zm25.258 0h-2.331V3.927H40.01V1.606h7.748v7.748zm.716 20.556h-7.748v-2.32h5.426v-5.427h2.322v7.748zm-21.272 0h-7.749v-7.748h2.322v5.427h5.427v2.322z" fill="#FF4D00"/>
  </g>
  <defs>
    <clipPath id="clip0">
      <path d="M0 0h167.478v32H0V0z" fill="#fff"/>
    </clipPath>
  </defs>
</svg>
