<?xml version="1.0" encoding="utf-8"?>
<!-- Generator: Adobe Illustrator 18.1.1, SVG Export Plug-In . SVG Version: 6.00 Build 0)  -->
<svg version="1.1" id="Layer_1" xmlns="http://www.w3.org/2000/svg" xmlns:xlink="http://www.w3.org/1999/xlink" x="0px" y="0px"
	 viewBox="0 0 268.9 62.2" enable-background="new 0 0 268.9 62.2" xml:space="preserve">
<g>
	<polyline fill="#FFFFFF" points="75.4,0 75.4,1.9 0,1.9 0,62.3 83,62.3 83,9.4 84.8,9.4 84.8,0 75.4,0 	"/>
	<polyline fill="#F6921E" points="75.4,9.4 75.4,3.7 30.2,3.7 30.2,60.3 81,60.3 81,9.4 75.4,9.4 	"/>
	<path fill="#FFFFFF" d="M38.1,34.7h-0.3v-2.5h0.3c0.6,0,0.7,0.3,0.7,1.2C38.9,34.1,38.8,34.7,38.1,34.7 M38.5,30.1h-2.7v9.5h2.1
		v-2.9h0.3c1.1,0,2.9-0.4,2.9-3.3C41,31.3,40.5,30.1,38.5,30.1z"/>
	<path fill="#FFFFFF" d="M43.7,32.1h0.3c0.6,0,0.8,0.3,0.8,1c0,0.4-0.1,1-0.7,1h-0.4V32.1 M43.7,35.6L43.7,35.6l1.2,4h2.2l-1.5-4.2
		c1.1-0.3,1.4-1.5,1.4-2.6c0-1.8-0.8-2.7-2.3-2.7h-3v9.5h2.1V35.6z"/>
	<path fill="#FFFFFF" d="M50.4,31.5L50.4,31.5l0.5,4h-1.1L50.4,31.5 M49.7,37.5H51l0.4,2.1h2.2L52,30.1h-3.2l-1.6,9.5h2.2L49.7,37.5
		z"/>
	<path fill="#FFFFFF" d="M54,32.2h2.4l-2.5,5.3v2.1h4.6v-2.1h-2.4l2.5-5.3v-2.1H54V32.2 M57.5,29.6l0.8-1.5h-1.5l-0.5,0.7l-0.5-0.7
		h-1.5l0.8,1.5H57.5z"/>
	<path fill="#FFFFFF" d="M61.9,36.9c0,0.4-0.2,0.8-1,0.8c-0.7,0-1.4-0.4-1.7-1V39c0.5,0.5,1.2,0.8,1.9,0.8c1.9,0,2.8-1,2.8-3
		c0-2.9-2.9-2.8-2.9-3.9c0-0.6,0.5-0.8,1-0.8c0.7,0,1.3,0.4,1.6,1v-2.3c-0.5-0.6-1.1-0.9-2.1-0.9c-1.7,0-2.6,1-2.6,2.8
		C58.9,35.8,61.9,35.5,61.9,36.9"/>
	<polyline fill="#FFFFFF" points="66.5,35 66.5,35 67.8,39.6 70.1,39.6 68.5,34.6 69.9,30.1 67.7,30.1 66.5,34.3 66.5,34.3 
		66.5,30.1 64.4,30.1 64.4,39.6 66.5,39.6 66.5,35 	"/>
	<path fill="#FFFFFF" d="M75.3,32.2v-2.1h-4.6v9.5h4.6v-2.1h-2.5v-1.6h2.5v-2.1h-2.5v-1.6H75.3 M74.7,28.1h-2.2l-0.6,1.5h1.6
		L74.7,28.1z"/>
	<path fill="#FFFFFF" d="M37.8,47.8c0-0.6,0.5-0.8,1-0.8c0.7,0,1.3,0.4,1.6,1v-2.3c-0.5-0.6-1.1-0.9-2.1-0.9c-1.7,0-2.6,1-2.6,2.8
		c0,3,2.9,2.8,2.9,4.2c0,0.4-0.2,0.8-1,0.8c-0.7,0-1.4-0.4-1.7-1V54c0.5,0.5,1.2,0.8,1.9,0.8c1.9,0,2.8-1,2.8-3
		C40.6,48.8,37.8,48.9,37.8,47.8"/>
	<polyline fill="#FFFFFF" points="43.5,45.1 41.4,45.1 41.4,54.6 45.3,54.6 45.3,52.5 43.5,52.5 43.5,45.1 	"/>
	<path fill="#FFFFFF" d="M49.2,51.4c0,0.7,0,1.2-0.6,1.2s-0.6-0.5-0.6-1.2v-6.3h-2.2v6.4c0,2.5,1.1,3.2,2.8,3.2
		c1.6,0,2.8-0.8,2.8-3.2v-6.4h-2.1V51.4"/>
	<path fill="#FFFFFF" d="M52.1,47.2h2.4l-2.5,5.3v2.1h4.6v-2.1h-2.4l2.5-5.3v-2.1h-4.6V47.2 M55.7,44.6l0.8-1.5h-1.5l-0.5,0.7
		l-0.5-0.7h-1.5l0.8,1.5H55.7z"/>
	<path fill="#FFFFFF" d="M59.8,52.7h-0.4v-2h0.4c0.6,0,0.9,0.3,0.9,1C60.7,52.4,60.4,52.7,59.8,52.7 M59.4,47h0.4
		c0.5,0,0.7,0.2,0.7,0.9c0,0.7-0.3,0.9-0.7,0.9h-0.4V47z M61.2,49.7L61.2,49.7c1.2-0.3,1.5-1.3,1.5-2.3c0-1.5-0.7-2.3-2.2-2.3h-3.1
		v9.5h2.5c1.7,0,2.9-0.9,2.9-2.7C62.8,50.8,62.5,49.8,61.2,49.7z"/>
	<polyline fill="#FFFFFF" points="65.7,49.2 65.6,49.2 65,45.1 62.7,45.1 64.6,51.3 64.6,54.6 66.7,54.6 66.7,51.3 68.6,45.1 
		66.4,45.1 65.7,49.2 	"/>
	<rect x="1.9" y="3.7" fill="#00AA4E" width="26.3" height="56.5"/>
	<path fill="#FFFFFF" d="M11.5,54.6c0,0,0-3.9,0-6c0-2,0.5-3.2,1-4.2c0.4-0.9,2.2-2.3,2.6-2.3s1.4,0.8,2.4,2
		c0.9,1.3,1.1,3.1,1.1,4.2c0,1.1,0,6.2,0,6.2h3.2v-20l0.9-1.6v-4.7l0.8-1.1l0-5.1l-1.8-8l-1.5,7.6l-0.9-0.5L17.9,9.4h-5.6l-1.4,11.7
		l-0.9,0.6L8.3,14l-1.7,8v5l0.7,1.2v4.6l0.9,1.5v20.2H11.5"/>
	<rect x="77.3" y="1.8" fill="#00AA4E" width="5.7" height="5.7"/>
	<g>
		<path fill="#00AA4E" d="M94.9,53.9c-0.4-0.6-0.7-1.1-0.9-1.7c0.1,0.7,0.1,1.3,0.1,2v6c0,0.1-0.1,0.1-0.1,0.1h-1
			c-0.1,0-0.1-0.1-0.1-0.1v-8.9c0-0.1,0.1-0.1,0.1-0.1h1.5c0.1,0,0.2,0.1,0.2,0.1l3.7,5.8c0.5,0.7,0.8,1.4,1,2
			c-0.1-0.9-0.1-1.5-0.1-2.4v-5.4c0-0.1,0.1-0.1,0.1-0.1h1c0.1,0,0.1,0.1,0.1,0.1v8.9c0,0.1-0.1,0.1-0.1,0.1h-1.3
			c-0.1,0-0.1-0.1-0.2-0.1L94.9,53.9z"/>
		<path fill="#00AA4E" d="M109,59.3c0.1,0,0.1,0,0.1,0.1l-0.1,0.8c0,0.1,0,0.1-0.1,0.1h-5.6c-0.1,0-0.1-0.1-0.1-0.1v-8.9
			c0-0.1,0.1-0.1,0.1-0.1h5.4c0.1,0,0.1,0,0.1,0.1l0.1,0.8c0,0.1,0,0.1-0.1,0.1c-0.8,0-2.1,0-2.8,0c-0.7,0-1.1,0-1.6,0
			c0,0.5,0,1,0,1.5c0,0.5,0,1,0,1.5c0.4,0,0.9-0.1,1.5-0.1c0.7,0,1.1,0,1.5,0c0.1,0,0.1,0,0.1,0.1v0.8c0,0.1,0,0.1-0.1,0.1
			c-0.3,0-0.8,0-1.5,0c-0.6,0-1,0-1.5-0.1c0,0.6,0,1.1,0,1.6c0,0.6,0,1.2,0,1.8c0.6,0,1.1,0,2.1,0C107.4,59.3,108.3,59.3,109,59.3z"
			/>
		<path fill="#00AA4E" d="M112.1,56.8c0,0.5,0,1.1,0,1.8v1.7c0,0.1-0.1,0.1-0.1,0.1h-1.1c-0.1,0-0.1-0.1-0.1-0.1v-8.9
			c0-0.1,0.1-0.2,0.1-0.2h2.6c2.3,0,3.3,1.3,3.3,2.9c0,1.7-1.1,2.8-3.4,2.8C112.8,56.8,112.4,56.8,112.1,56.8z M115.3,54
			c0-1.1-0.5-1.9-1.9-1.9c-0.5,0-0.9,0-1.4,0c0,0.5,0,1.3,0,1.8c0,0.6,0,1.4,0,1.9c0.4,0,0.8,0,1.2,0
			C114.6,55.8,115.3,55.2,115.3,54z"/>
		<path fill="#00AA4E" d="M119.9,56.5c0,0.6,0.1,1.1,0.1,1.8v1.9c0,0.1-0.1,0.1-0.1,0.1h-1.1c-0.1,0-0.1-0.1-0.1-0.1v-8.9
			c0-0.1,0.1-0.2,0.1-0.2h2.6c2.1,0,3.1,1.1,3.1,2.6c0,1.4-1.3,2.4-2.6,2.5c0.7,0.1,1.6,1.1,2.6,2.1c0.7,0.8,1.2,1.4,1.5,1.5
			c0.1,0,0.1,0.1,0.1,0.2c0,0.1-0.1,0.2-0.2,0.2h-1.2c-0.2,0-0.3-0.1-0.6-0.5c-1.2-1.3-2.5-3.3-3.4-3.3
			C120.5,56.5,120.2,56.5,119.9,56.5z M122.5,48.6c0.1-0.1,0.1-0.1,0.2-0.1h0.5c0.1,0,0.1,0.1,0,0.1l-1.6,1.8
			c-0.1,0.1-0.1,0.1-0.2,0.1H121c-0.1,0-0.1,0-0.2-0.1l-1.5-1.8c0-0.1,0-0.1,0.1-0.1h0.5c0.1,0,0.1,0,0.2,0.1l1.3,1.2L122.5,48.6z
			 M119.9,52.1c0,0.5,0,1.5,0,2c0,0.5,0,1.1,0,1.6c0.2,0,0.6,0,1,0c1.5,0,2.2-0.7,2.2-1.9c0-1-0.6-1.6-1.9-1.6
			C120.8,52.1,120.4,52.1,119.9,52.1z"/>
	</g>
	<g>
		<path fill="#00AA4E" d="M134,58.3c0.1,0,0.1,0,0.1,0.1l-0.3,1.8c0,0.1,0,0.1-0.1,0.1h-6.4c-0.1,0-0.1-0.1-0.1-0.1v-8.9
			c0-0.1,0.1-0.1,0.1-0.1h6.2c0.1,0,0.1,0,0.1,0.1l0.2,1.8c0,0.1,0,0.1-0.1,0.1c-0.8,0-1.8,0-2.4,0c-0.6,0-1.2,0-1.6-0.1
			c0,0.3,0.1,0.6,0.1,0.9c0,0.3,0,0.6-0.1,0.8c0.4-0.1,0.9-0.1,1.6-0.1c0.4,0,0.8,0,1.3,0c0.1,0,0.1,0,0.1,0.1v1.7
			c0,0.1,0,0.1-0.1,0.1c-0.5,0-0.9,0-1.3,0c-0.6,0-1.1,0-1.6-0.1c0,0.3,0.1,0.6,0.1,0.9c0,0.4,0,0.7-0.1,1c0.7,0,1.1,0,1.8,0
			C132.4,58.3,133.2,58.3,134,58.3z"/>
		<path fill="#00AA4E" d="M138.4,60.2c0,0.1-0.1,0.1-0.1,0.1h-2.4c-0.1,0-0.1-0.1-0.1-0.1v-8.9c0-0.1,0.1-0.1,0.1-0.1h2.4
			c0.1,0,0.1,0.1,0.1,0.1v2.2c0,0.5,0,1.1,0,1.4h0.3c0.2,0,0.6-0.5,1.3-1.6c0.4-0.6,1-1.5,1.4-2c0.1-0.1,0.1-0.1,0.2-0.1h2.7
			c0.1,0,0.1,0.1,0.1,0.2c0,0.1,0,0.1,0,0.2c-0.2,0.1-0.8,0.8-2,2.3c-0.6,0.7-1.1,1.3-1.4,1.5c0.2,0.1,0.9,0.9,1.6,1.9
			c0.9,1.2,1.9,2.4,2.2,2.6c0.1,0,0.1,0.1,0.1,0.2c0,0.2-0.1,0.2-0.1,0.2h-2.9c0,0-0.1-0.1-0.2-0.1c-0.6-0.7-1.1-1.6-1.6-2.3
			c-0.7-1.2-1.2-1.6-1.4-1.6h-0.3c0,0.3,0,0.9,0,1.5V60.2z"/>
		<path fill="#00AA4E" d="M155,55.6c0,2.9-2.1,4.9-4.8,4.9c-2.7,0-4.9-2-4.9-4.9c0-2.9,2.2-4.7,4.9-4.7
			C152.9,50.8,155,52.7,155,55.6z M152.1,55.6c0-1.8-0.6-2.6-1.9-2.6c-1.4,0-2,0.8-2,2.6c0,1.8,0.6,2.8,2,2.8
			C151.6,58.4,152.1,57.3,152.1,55.6z"/>
	</g>
	<g>
		<path fill="#00AA4E" d="M159.1,53.9c-0.4-0.6-0.7-1.1-0.9-1.7c0.1,0.7,0.1,1.3,0.1,2v6c0,0.1-0.1,0.1-0.1,0.1h-1
			c-0.1,0-0.1-0.1-0.1-0.1v-8.9c0-0.1,0.1-0.1,0.1-0.1h1.5c0.1,0,0.2,0.1,0.2,0.1l3.7,5.8c0.5,0.7,0.8,1.4,1,2
			c-0.1-0.9-0.1-1.5-0.1-2.4v-5.4c0-0.1,0.1-0.1,0.1-0.1h1c0.1,0,0.1,0.1,0.1,0.1v8.9c0,0.1-0.1,0.1-0.1,0.1h-1.3
			c-0.1,0-0.1-0.1-0.2-0.1L159.1,53.9z"/>
		<path fill="#00AA4E" d="M170.3,57.4c-0.6,0-1.2,0-1.7,0c-0.2,0.7-0.6,1.9-1,2.9c0,0.1-0.1,0.1-0.1,0.1h-1c-0.1,0-0.2-0.1-0.1-0.2
			l3.3-8.8c0-0.1,0.1-0.1,0.1-0.1h1.2c0.1,0,0.1,0.1,0.2,0.1l3.3,8.8c0.1,0.1,0,0.2-0.1,0.2h-1.1c-0.1,0-0.1-0.1-0.2-0.1
			c-0.4-1-0.8-2.1-1-2.9C171.4,57.3,170.8,57.4,170.3,57.4z M170.3,52.2c-0.2,0.7-0.4,1.5-0.8,2.5c-0.2,0.6-0.5,1.5-0.7,1.8
			c0.5,0,1,0,1.5,0c0.5,0,1,0,1.4,0c-0.1-0.3-0.5-1.1-0.7-1.7C170.7,53.7,170.4,52.9,170.3,52.2z"/>
		<path fill="#00AA4E" d="M181.8,51.2v0.9c0,0.1,0,0.1-0.1,0.1c-0.5,0-1.1,0-1.5,0c-0.6,0-1.2,0-1.7,0c0,0.5,0,1,0,1.4v6.6
			c0,0.1-0.1,0.1-0.1,0.1h-1.1c-0.1,0-0.1-0.1-0.1-0.1v-6.6c0-0.5,0-1,0-1.4c-0.5,0-1.1,0-1.6,0c-0.6,0-1.1,0-1.7,0
			c-0.1,0-0.1,0-0.1-0.1l0.1-0.9c0-0.1,0-0.1,0.1-0.1h7.7C181.8,51.1,181.8,51.2,181.8,51.2z"/>
		<path fill="#00AA4E" d="M189.1,59.3c0.1,0,0.1,0,0.1,0.1l-0.1,0.8c0,0.1,0,0.1-0.1,0.1h-5.6c-0.1,0-0.1-0.1-0.1-0.1v-8.9
			c0-0.1,0.1-0.1,0.1-0.1h5.4c0.1,0,0.1,0,0.1,0.1l0.1,0.8c0,0.1,0,0.1-0.1,0.1c-0.8,0-2.1,0-2.8,0c-0.7,0-1.1,0-1.6,0
			c0,0.5,0,1,0,1.5c0,0.5,0,1,0,1.5c0.4,0,0.9-0.1,1.5-0.1c0.7,0,1.1,0,1.5,0c0.1,0,0.1,0,0.1,0.1v0.8c0,0.1,0,0.1-0.1,0.1
			c-0.3,0-0.8,0-1.5,0c-0.6,0-1.1,0-1.5-0.1c0,0.6,0,1.1,0,1.6c0,0.6,0,1.2,0,1.8c0.6,0,1.1,0,2.1,0
			C187.4,59.3,188.3,59.3,189.1,59.3z"/>
		<path fill="#00AA4E" d="M194.5,59.3c0.8,0,1.6,0,2.4,0c0.1,0,0.1,0,0.1,0.1l-0.1,0.8c0,0.1,0,0.1-0.1,0.1H191
			c-0.1,0-0.1-0.1-0.1-0.1v-8.9c0-0.1,0.1-0.1,0.1-0.1h1.1c0.1,0,0.1,0.1,0.1,0.1v6.2c0,0.6,0,1.2-0.1,1.9
			C192.9,59.3,193.7,59.3,194.5,59.3z"/>
		<path fill="#00AA4E" d="M200.4,53.9c-0.4-0.6-0.7-1.1-0.9-1.7c0.1,0.7,0.1,1.3,0.1,2v6c0,0.1-0.1,0.1-0.1,0.1h-1
			c-0.1,0-0.1-0.1-0.1-0.1v-8.9c0-0.1,0.1-0.1,0.1-0.1h1.5c0.1,0,0.2,0.1,0.2,0.1l3.7,5.8c0.5,0.7,0.8,1.4,1,2
			c-0.1-0.9-0.1-1.5-0.1-2.4v-5.4c0-0.1,0.1-0.1,0.1-0.1h1c0.1,0,0.1,0.1,0.1,0.1v8.9c0,0.1-0.1,0.1-0.1,0.1h-1.3
			c-0.1,0-0.1-0.1-0.2-0.1L200.4,53.9z"/>
		<path fill="#00AA4E" d="M212.5,60.2c0,0.1-0.1,0.1-0.1,0.1h-1.1c-0.1,0-0.1-0.1-0.1-0.1v-3.9l-3.7-5c-0.1-0.1-0.1-0.2,0.1-0.2h1.2
			c0.1,0,0.2,0.1,0.2,0.1l2.1,2.8c0.3,0.4,0.6,0.8,0.8,1.3c0.3-0.5,0.5-0.9,0.8-1.3l2.1-2.8c0.1-0.1,0.2-0.1,0.3-0.1h1.1
			c0.1,0,0.1,0.1,0.1,0.2l-3.7,5V60.2z M211.5,50.4c-0.1,0.1-0.1,0.1-0.2,0.1h-0.5c-0.1,0-0.1-0.1-0.1-0.1l1.6-1.8
			c0-0.1,0.1-0.1,0.2-0.1h1c0.1,0,0.1,0.1,0,0.1L211.5,50.4z"/>
	</g>
	<g>
		<path fill="#00AA4E" d="M225,57.8c0-0.5-0.4-0.7-1.7-1.1c-1.7-0.5-2.6-1.3-2.6-2.7c0-1.7,1.3-3.1,3.8-3.1c1,0,1.7,0.2,2.5,0.5
			c0.2,0.1,0.2,0.2,0.2,0.5v1.8c0,0.2-0.1,0.3-0.2,0.3c-0.1,0-0.1,0-0.2-0.1c-0.6-0.6-1.6-0.9-2.5-0.9c-0.8,0-1.1,0.3-1.1,0.7
			c0,0.6,0.8,0.8,1.6,1c2.1,0.6,2.6,1.5,2.6,2.8c0,2-1.7,3-3.8,3c-1.3,0-2.2-0.3-2.8-0.6c-0.1-0.1-0.2-0.2-0.2-0.5v-1.5
			c0-0.2,0.1-0.3,0.2-0.3c0.1,0,0.2,0.1,0.2,0.1c0.7,0.5,1.7,0.7,2.5,0.7C224.6,58.5,225,58.2,225,57.8z"/>
		<path fill="#00AA4E" d="M236.3,58.3c0.1,0,0.1,0,0.1,0.1l-0.3,1.8c0,0.1,0,0.1-0.1,0.1h-6.4c-0.1,0-0.1-0.1-0.1-0.1v-8.9
			c0-0.1,0.1-0.1,0.1-0.1h6.2c0.1,0,0.1,0,0.1,0.1l0.2,1.8c0,0.1,0,0.1-0.1,0.1c-0.8,0-1.8,0-2.4,0c-0.6,0-1.2,0-1.6-0.1
			c0,0.3,0.1,0.6,0.1,0.9c0,0.3,0,0.6-0.1,0.8c0.4-0.1,0.9-0.1,1.6-0.1c0.4,0,0.8,0,1.3,0c0.1,0,0.1,0,0.1,0.1v1.7
			c0,0.1,0,0.1-0.1,0.1c-0.5,0-0.9,0-1.3,0c-0.6,0-1.1,0-1.6-0.1c0,0.3,0.1,0.6,0.1,0.9c0,0.4,0,0.7-0.1,1c0.7,0,1.1,0,1.8,0
			C234.7,58.3,235.5,58.3,236.3,58.3z"/>
		<path fill="#00AA4E" d="M240.6,57.1c0,0.5,0.1,1.3,0.1,1.9v1.2c0,0.1-0.1,0.1-0.1,0.1h-2.4c-0.1,0-0.1-0.1-0.1-0.1v-8.9
			c0-0.1,0.1-0.2,0.1-0.2h4c2.5,0,3.3,1.3,3.3,2.8c0,1.4-1,2.3-2.4,2.6c0.6,0.2,1.2,0.8,2.1,1.8c1,1.1,1.3,1.4,1.5,1.5
			c0.1,0,0.1,0.1,0.1,0.2c0,0.2-0.1,0.3-0.2,0.3H244c-0.2,0-0.5-0.1-1.2-1.1c-1.1-1.5-1.5-2-1.8-2C240.9,57.1,240.8,57.1,240.6,57.1
			z M240.6,53c0,0.3,0.1,0.8,0.1,1.3c0,0.4,0,0.8-0.1,1.2c0.2,0,0.5,0,0.7,0c1.1,0,1.5-0.4,1.5-1.2c0-0.6-0.3-1.1-1.2-1.1
			C241.3,53,240.9,53,240.6,53z"/>
		<path fill="#00AA4E" d="M250,60.3c-0.1,0-0.1-0.1-0.2-0.1l-3-8.8c-0.1-0.1,0-0.2,0.1-0.2h2.5c0.1,0,0.1,0.1,0.2,0.1l1.2,4.1
			c0.3,1,0.6,2.3,0.8,3.4c0.2-1.2,0.5-2.4,0.8-3.4l1.2-4.1c0-0.1,0.1-0.1,0.2-0.1h2.3c0.1,0,0.2,0.1,0.1,0.2l-3,8.8
			c0,0.1-0.1,0.1-0.1,0.1H250z"/>
		<path fill="#00AA4E" d="M260.1,60.2c0,0.1-0.1,0.1-0.1,0.1h-2.4c-0.1,0-0.1-0.1-0.1-0.1v-8.9c0-0.1,0.1-0.1,0.1-0.1h2.4
			c0.1,0,0.1,0.1,0.1,0.1V60.2z"/>
		<path fill="#00AA4E" d="M266.4,57.8c0-0.5-0.4-0.7-1.7-1.1c-1.7-0.5-2.6-1.3-2.6-2.7c0-1.7,1.3-3.1,3.8-3.1c1,0,1.7,0.2,2.5,0.5
			c0.2,0.1,0.2,0.2,0.2,0.5v1.8c0,0.2-0.1,0.3-0.2,0.3c-0.1,0-0.1,0-0.2-0.1c-0.6-0.6-1.6-0.9-2.5-0.9c-0.8,0-1.1,0.3-1.1,0.7
			c0,0.6,0.8,0.8,1.6,1c2.1,0.6,2.6,1.5,2.6,2.8c0,2-1.7,3-3.8,3c-1.3,0-2.2-0.3-2.8-0.6c-0.1-0.1-0.2-0.2-0.2-0.5v-1.5
			c0-0.2,0.1-0.3,0.2-0.3c0.1,0,0.2,0.1,0.2,0.1c0.7,0.5,1.7,0.7,2.5,0.7C266,58.5,266.4,58.2,266.4,57.8z"/>
	</g>
</g>
</svg>
