<svg width="132" height="33" viewBox="0 0 132 33" fill="none" xmlns="http://www.w3.org/2000/svg">
<g clip-path="url(#clip0_16078_55451)">
<path d="M24.9293 0H6.63697C2.97147 0 0 2.99273 0 6.68445V25.1076C0 28.7994 2.97147 31.7921 6.63697 31.7921H24.9293C28.5948 31.7921 31.5663 28.7994 31.5663 25.1076V6.68445C31.5663 2.99273 28.5948 0 24.9293 0Z" fill="#D4EDF1"/>
<path d="M3.23565 15.6455C4.29649 17.5022 5.77025 19.0875 7.52859 20.2788C7.54002 20.2699 7.55146 20.2583 7.56289 20.2481C7.94784 19.9026 8.44079 19.4113 8.81685 18.8265C8.85369 18.7702 8.88927 18.7126 8.9223 18.6538C6.732 18.371 4.74624 17.3089 3.23438 15.6455H3.23565Z" fill="#00B2BB"/>
<path d="M25.9715 10.7382C25.5154 10.0472 24.7773 9.49063 23.9172 9.55716C22.9631 9.63138 22.1055 10.5079 21.5236 11.2065C21.1806 11.6185 19.9126 13.3012 19.5938 13.6902C21.7586 15.099 24.3364 15.9204 27.1035 15.9307C27.3932 14.3389 26.9092 12.156 25.9715 10.7369V10.7382Z" fill="#00B2BB"/>
<path d="M19.5988 13.6916C19.5988 13.6916 19.5925 13.698 19.5899 13.7018C19.5721 13.7236 19.5569 13.7441 19.5378 13.7645C19.4997 13.8093 19.4629 13.8554 19.4235 13.9014C19.3841 13.9462 19.3447 13.9923 19.3041 14.0384C19.3041 14.0409 19.3015 14.0409 19.3002 14.0435C19.2456 14.1036 19.1923 14.165 19.1376 14.2265C19.0855 14.284 19.0322 14.3416 18.9788 14.3992C18.9458 14.435 18.9115 14.4721 18.8772 14.508C18.8594 14.5271 18.8391 14.5463 18.8213 14.5668C18.7857 14.6026 18.7501 14.6398 18.7146 14.6756C18.5367 14.8547 18.3563 15.03 18.1682 15.1989C18.1492 15.2156 18.1314 15.2322 18.1123 15.2488C15.5943 17.584 12.8843 18.664 10.3574 18.7292C9.87203 18.742 9.39306 18.7164 8.92426 18.6563C8.96237 18.5898 8.99922 18.5232 9.03479 18.4541C9.75642 17.0428 9.12499 15.3077 8.52152 13.5918C8.14927 12.5336 7.7478 11.2745 8.17849 10.1613C8.39066 9.6149 8.85819 9.28861 9.42101 9.19008C10.0715 9.07492 10.7576 9.21183 11.3877 9.37818C12.1779 9.58675 12.9428 9.89512 13.6885 10.2291C15.128 10.8753 19.1008 13.3704 19.6001 13.6954V13.6929L19.5988 13.6916Z" fill="#3CA9D2"/>
<path d="M27.1093 15.9325C26.9657 16.1705 26.8133 16.4021 26.6557 16.6312C26.638 16.6593 26.6176 16.6849 26.5986 16.7118C24.4743 19.7354 21.1927 21.8761 17.4041 22.4801C17.3762 22.4839 17.3495 22.489 17.3215 22.4929C17.2796 22.5005 17.2364 22.5057 17.1945 22.5108C16.5605 22.6003 15.9139 22.6464 15.2557 22.6464C12.6665 22.6464 10.2412 21.9311 8.16776 20.6861C7.95305 20.5569 7.74088 20.4225 7.53379 20.2818L7.53125 20.2792C7.54268 20.2703 7.55412 20.2587 7.56555 20.2485C7.95051 19.9043 8.44472 19.4117 8.81951 18.8269C8.85636 18.7706 8.89193 18.7117 8.92496 18.6542C9.39504 18.7143 9.87401 18.7386 10.3581 18.7271C12.885 18.6618 15.5937 17.5832 18.1131 15.2467C18.1321 15.23 18.1512 15.2134 18.169 15.1968C18.3557 15.0279 18.5374 14.8526 18.7153 14.6734C18.7508 14.6376 18.7864 14.6005 18.822 14.5647C18.841 14.5455 18.8601 14.525 18.8779 14.5058C18.9122 14.47 18.9465 14.4342 18.9795 14.3971C19.0329 14.3395 19.0875 14.2819 19.1383 14.2243C19.1942 14.1642 19.2489 14.1028 19.3009 14.0413C19.3035 14.0388 19.3035 14.0388 19.3048 14.0362C19.3454 13.9914 19.3848 13.9454 19.4242 13.8993C19.4623 13.8545 19.5017 13.8085 19.5385 13.7624C19.5563 13.7406 19.5728 13.7202 19.5906 13.6997C19.5932 13.6971 19.597 13.6933 19.5995 13.6895C21.7631 15.0983 24.3422 15.9185 27.1093 15.93V15.9325Z" fill="#005E93"/>
<path d="M53.6751 15.7076C54.3726 14.6686 54.7207 13.4083 54.7207 11.9265C54.7207 10.4448 54.4056 9.25608 53.7755 8.2465C53.1453 7.23564 52.2712 6.46663 51.1532 5.93689C50.0352 5.40715 48.7495 5.14355 47.2986 5.14355H39.3594V26.6505H43.2572V18.7121H46.9289L51.34 26.6505H55.7536L50.8521 18.0185C52.0362 17.5182 52.9776 16.7479 53.6751 15.7089V15.7076ZM50.3922 13.6578C50.1051 14.1581 49.7049 14.5484 49.1891 14.8273C48.6732 15.1063 48.0609 15.2457 47.3545 15.2457H43.2559V8.60606H47.3545C48.0609 8.60606 48.6732 8.74553 49.1891 9.02448C49.7049 9.30342 50.1063 9.68857 50.3922 10.1786C50.6793 10.6687 50.8216 11.2522 50.8216 11.9253C50.8216 12.5983 50.6781 13.1575 50.3922 13.6578Z" fill="#005E93"/>
<path d="M67.5179 11.3053C66.5435 10.8344 65.4153 10.5977 64.1359 10.5977C63.0852 10.5977 62.1108 10.7704 61.2125 11.1172C60.3143 11.4639 59.5355 11.9399 58.8761 12.5464C58.2168 13.1529 57.734 13.8695 57.4291 14.6974L60.496 16.1983C60.7831 15.4869 61.2367 14.9136 61.8579 14.4811C62.4792 14.0486 63.1907 13.8324 63.9936 13.8324C64.8537 13.8324 65.5461 14.0589 66.0721 14.5106C66.5981 14.9635 66.8598 15.5265 66.8598 16.1996V16.7076L62.2162 17.4689C60.9927 17.6621 59.9802 17.9884 59.1785 18.4504C58.3756 18.9123 57.7835 19.4855 57.4011 20.1675C57.0187 20.8508 56.8281 21.625 56.8281 22.4912C56.8281 23.3575 57.0479 24.1892 57.4875 24.8725C57.9271 25.5558 58.5484 26.0804 59.35 26.4464C60.153 26.8123 61.0982 26.9953 62.187 26.9953C63.0471 26.9953 63.8297 26.875 64.5374 26.6345C65.2438 26.3939 65.8752 26.0471 66.4291 25.5954C66.6527 25.4125 66.8611 25.2077 67.0593 24.9889V26.6498H70.6128V16.1996C70.6128 15.0838 70.3409 14.1062 69.7959 13.2694C69.2508 12.4326 68.4924 11.7787 67.5166 11.3065L67.5179 11.3053ZM66.3567 22.202C66.0226 22.7996 65.5538 23.2654 64.9516 23.6019C64.3493 23.9384 63.6569 24.1073 62.8731 24.1073C62.2607 24.1073 61.75 23.9486 61.3396 23.6313C60.928 23.314 60.7234 22.8853 60.7234 22.3466C60.7234 21.8079 60.9051 21.3358 61.2684 20.9903C61.6318 20.6435 62.1857 20.403 62.9315 20.2686L66.8585 19.5968V20.2405C66.8585 20.9532 66.6908 21.607 66.3567 22.2033V22.202Z" fill="#005E93"/>
<path d="M79.5959 21.7768L75.557 10.9453H71.5156L77.6876 26.6558L77.3344 27.4863C77.0282 28.1401 76.6801 28.6647 76.2888 29.0601C75.8975 29.4542 75.2712 29.6526 74.411 29.6526C74.1049 29.6526 73.7758 29.6231 73.4226 29.5656C73.0694 29.508 72.7683 29.4504 72.5193 29.3928V32.5393C72.8445 32.712 73.2066 32.8323 73.6081 32.9001C74.0096 32.9679 74.4199 33.0012 74.8405 33.0012C75.8149 33.0012 76.6788 32.8131 77.4348 32.4382C78.1894 32.0633 78.8539 31.5194 79.4269 30.8067C79.9999 30.094 80.4877 29.238 80.8892 28.2374L87.6824 10.9453H83.6118L79.5971 21.7768H79.5959Z" fill="#005E93"/>
<path d="M100.32 11.3488C99.4322 10.8485 98.4146 10.5977 97.2673 10.5977C96.1201 10.5977 95.1888 10.8433 94.3579 11.3334C93.7164 11.7122 93.2158 12.2278 92.8537 12.8753V10.9431H89.3281V26.6472H93.0824V17.4382C93.0824 16.746 93.2158 16.1497 93.4839 15.6481C93.7507 15.1478 94.1242 14.7575 94.6019 14.4786C95.0796 14.1996 95.6233 14.0602 96.2357 14.0602C96.8481 14.0602 97.416 14.1996 97.8835 14.4786C98.3511 14.7575 98.7195 15.1478 98.9876 15.6481C99.2544 16.1484 99.389 16.7447 99.389 17.4382V26.6472H103.143V16.5438C103.143 15.3704 102.894 14.3353 102.398 13.4409C101.901 12.5464 101.208 11.8491 100.319 11.3475L100.32 11.3488Z" fill="#005E93"/>
<path d="M118.819 12.8791C118.17 12.1677 117.381 11.6085 116.455 11.2042C115.528 10.7998 114.453 10.5977 113.231 10.5977C111.779 10.5977 110.465 10.9534 109.29 11.6661C108.114 12.3788 107.187 13.3449 106.51 14.5669C105.831 15.7889 105.492 17.19 105.492 18.7677C105.492 20.3454 105.826 21.6736 106.496 22.925C107.164 24.1764 108.1 25.1668 109.305 25.8987C110.509 26.6306 111.913 26.9953 113.518 26.9953C114.588 26.9953 115.567 26.8315 116.455 26.5039C117.343 26.1764 118.113 25.7247 118.762 25.1476C119.412 24.5705 119.889 23.9064 120.195 23.1553L117.158 21.6544C116.813 22.2711 116.341 22.7612 115.739 23.1259C115.136 23.4918 114.406 23.6748 113.546 23.6748C112.686 23.6748 111.926 23.4726 111.267 23.0683C110.607 22.664 110.11 22.092 109.776 21.3511C109.572 20.8969 109.445 20.4017 109.394 19.8643H120.625C120.701 19.6531 120.753 19.4023 120.782 19.1132C120.812 18.8253 120.826 18.5463 120.826 18.2763C120.826 17.2181 120.654 16.2316 120.31 15.318C119.965 14.4044 119.469 13.5906 118.819 12.8791ZM111.138 14.3084C111.749 13.9143 112.447 13.716 113.231 13.716C114.015 13.716 114.754 13.9181 115.337 14.3225C115.92 14.7268 116.341 15.2745 116.599 15.968C116.717 16.284 116.787 16.6219 116.816 16.9789H109.474C109.537 16.6436 109.629 16.3301 109.748 16.0409C110.063 15.2809 110.527 14.7038 111.138 14.3084Z" fill="#005E93"/>
<path d="M131.472 23.4737C131.29 23.4929 131.133 23.5031 130.999 23.5031C130.387 23.5031 129.886 23.4072 129.495 23.2139C129.104 23.022 128.817 22.7431 128.635 22.3771C128.453 22.0111 128.363 21.5684 128.363 21.0489V14.3222H131.946V10.9455H128.363V7.36523H124.609V8.57826C124.609 9.34856 124.398 9.9346 123.979 10.3389C123.558 10.7433 122.966 10.9455 122.201 10.9455H121.914V14.3222H124.609V21.2498C124.609 23.0207 125.092 24.3924 126.056 25.3636C127.02 26.3361 128.382 26.821 130.14 26.821C130.428 26.821 130.743 26.8018 131.086 26.7635C131.43 26.7251 131.735 26.6867 132.003 26.6483V23.4148C131.831 23.434 131.654 23.4532 131.473 23.4724L131.472 23.4737Z" fill="#005E93"/>
</g>
<defs>
<clipPath id="clip0_16078_55451">
<rect width="132" height="33" fill="white"/>
</clipPath>
</defs>
</svg>
