<?xml version="1.0" encoding="UTF-8"?> <svg xmlns="http://www.w3.org/2000/svg" width="619" height="80" viewBox="0 0 619 80" fill="none"><g clip-path="url(#clip0_1_7)"><path d="M82.761 2.10678L55.4951 59.7691L28.2292 2.10678H0L36.6075 77.8932H74.3828L110.961 2.10678H82.761Z" fill="#1c1237"></path><path d="M166.223 2.10678H128.447L91.84 77.8932H120.069L126.346 64.6176L135.249 45.6854L147.335 20.202L159.421 45.6854L168.325 64.6176L174.601 77.8932H202.801L166.223 2.10678Z" fill="#1c1237"></path><path d="M237.803 55.7864V2.10678H211.267V77.8932H287.664V55.7864H237.803Z" fill="#1c1237"></path><path d="M408.784 2.10678H373.14L352.997 24.2136L332.825 2.10678H297.181L334.956 40L297.181 77.8932H332.825L352.997 55.7864L373.14 77.8932H408.784L371.009 40L408.784 2.10678Z" fill="#1c1237"></path><path d="M456.514 57.8932C439.232 57.8932 434.211 49.899 434.211 39.8846C434.211 29.8701 439.086 22.1068 456.514 22.1068C473.942 22.1068 478.788 30.101 478.788 39.8846C478.788 49.6681 473.796 57.8932 456.514 57.8932ZM456.514 0C424.898 0 406.653 14.3146 406.653 39.8846C406.653 65.4545 424.898 80 456.514 80C488.13 80 506.375 65.4834 506.375 39.8846C506.375 14.2857 488.013 0 456.514 0Z" fill="#1c1237"></path><path d="M592.464 2.10678V52.2078L556.207 2.10678H516.943V77.8932H543.479V27.7922L579.736 77.8932H619V2.10678H592.464Z" fill="#1c1237"></path></g><defs><clipPath id="clip0_1_7"><rect width="619" height="80" fill="white"></rect></clipPath></defs></svg> 