<?xml version="1.0" encoding="utf-8"?>
<svg version="1.1" xmlns="http://www.w3.org/2000/svg" xmlns:xlink="http://www.w3.org/1999/xlink" x="0px" y="0px"
	 viewBox="0 0 5594 1842" role="img" aria-label="StartupJobs">
<style type="text/css">
	.st0{fill:#003DFF;}
</style>
<g>
	<g>
		<path class="st0" d="M4842.9956055,850c0-13,15-21,40-21c39,0,103,20,148,47l59-121c-51-36-124-58-194-58c-122,0-202,68-202,166
			c0,174,252,139,252,192c0,14-17,22-43,22c-49,0-124-22-170-55l-60,116c57,44,144,71,223,71c119,0,201-67,200-164
			C5094.9956055,873,4842.9956055,903,4842.9956055,850z"/>
		<path class="st0" d="M4455.9956055,697c-50,0-93,17-121,47V499h-148v700h148v-37c24,28,68,47,120,47c126,0,221-109,221-257
			C4675.9956055,805,4580.9956055,697,4455.9956055,697z M4427.9956055,1069c-60,0-101-48-101-117c0-68,41-115,101-115
			c59,0,100,47,100,115C4527.9956055,1021,4486.9956055,1069,4427.9956055,1069z"/>
		<path class="st0" d="M3904.9956055,697c-147,0-248,105-248,256s101,256,248,256s248-105,248-256
			S4051.9956055,697,3904.9956055,697z M3904.9956055,1069c-59,0-100-47-100-116s41-116,100-116s100,47,100,116
			S3963.9956055,1069,3904.9956055,1069z"/>
		<polygon class="st0" points="3470.9956055,1053 3373.9956055,1053 3373.9956055,1199 3622.9956055,1199 3622.9956055,499
			3470.9956055,499 		"/>
		<path d="M3179.9956055,697c-46,0-91,17-124,47l4-37h-148l-68,646h148l19-191c32,31,75,47,122,47c112,0,239-90,239-274
			C3371.9956055,767,3273.9956055,697,3179.9956055,697z M3112.9956055,1069c-53,0-90-42-90-103c0-76,45-129,111-129
			c53,0,90,42,90,103C3223.9956055,1016,3178.9956055,1069,3112.9956055,1069z"/>
		<path d="M2715.9956055,707l-28,265c-5,48-31,97-90,97c-51,0-63-36-63-72c0-9,1-17,2-25l28-265h-149l-28,265c-1,12-2,24-2,35
			c0,116,64,202,193,202c151,0,243-95,258-237l28-265H2715.9956055z"/>
	</g>
	<polygon class="st0" points="1832.9954834,1199 1980.9954834,1199 1980.9954834,847 2116.9953613,847 2116.9953613,1199
		2358.9953613,1199 2358.9953613,1059 2264.9953613,1059 2264.9953613,847 2358.9953613,847 2358.9953613,707 2264.9953613,707
		2264.9953613,581 2116.9953613,581 2116.9953613,707 1832.9954834,707 	"/>
	<path class="st0" d="M1372.9954834,707v140h264v36h-48c-169,0-234,85-234,168c0,106,77,158,160,158c47,0,96-18,122-52v42h148V707
		H1372.9954834z M1543.9954834,1073c-26,0-38-14-38-34c0-29,26-47,85-47h46C1636.9954834,1040,1589.9954834,1073,1543.9954834,1073z
		"/>
	<polygon class="st0" points="1086.9954834,1199 1328.9954834,1199 1328.9954834,1059 1234.9954834,1059 1234.9954834,847
		1328.9954834,847 1328.9954834,707 1234.9954834,707 1234.9954834,579 1086.9954834,579 1086.9954834,707 1034.9954834,707
		1034.9954834,847 1086.9954834,847 	"/>
	<path class="st0" d="M791.9954834,1209c131,0,253-73,253-223c0-257-355-176-355-293c0-36,34-55,79-55c55,0,128,25,175,62l88-123
		c-66-56-173-88-256-88c-130,0-246,77-246,216c0,242,355,182,355,289c0,32-33,64-95,64c-53,0-129-23-191-87l-101,114
		C567.9954834,1160,683.9954834,1209,791.9954834,1209z"/>
</g>
</svg>
